<svg id="svg" version="1.1" xmlns="http://www.w3.org/2000/svg" xmlns:xlink="http://www.w3.org/1999/xlink" width="400" height="400" viewBox="0, 0, 400,400"><g id="svgg"><path id="path0" d="M306.000 76.642 C 301.581 77.176,292.611 79.336,291.819 80.056 C 291.578 80.275,291.610 81.542,291.906 83.501 C 292.163 85.206,292.742 89.030,293.192 92.000 C 296.224 112.032,298.376 142.163,298.393 164.831 L 298.400 174.662 294.700 175.133 C 281.737 176.785,276.208 176.981,242.600 176.983 C 210.596 176.985,200.513 176.673,199.490 175.650 C 199.246 175.406,199.272 173.476,199.562 170.334 C 199.812 167.620,200.197 163.330,200.418 160.800 C 200.640 158.270,200.990 154.580,201.197 152.600 C 201.831 146.530,202.999 133.708,203.602 126.200 C 203.831 123.340,204.055 116.410,204.098 110.800 C 204.176 100.748,204.032 99.241,202.751 96.705 C 202.558 96.323,202.400 95.838,202.400 95.627 C 202.400 94.654,199.374 90.244,197.108 87.914 C 187.954 78.501,175.681 75.931,158.400 79.807 C 151.105 81.444,150.314 81.922,150.806 84.400 C 154.830 104.666,156.942 130.248,157.443 164.800 C 157.771 187.420,157.091 204.707,154.799 232.000 C 154.568 234.750,154.209 239.070,154.000 241.600 C 153.791 244.130,153.434 248.360,153.208 251.000 C 150.770 279.442,150.301 295.619,151.758 300.997 C 155.244 313.865,167.017 322.000,182.155 322.000 C 191.373 322.000,204.905 319.126,204.497 317.255 C 204.441 316.995,204.209 315.572,203.983 314.092 C 203.757 312.611,203.396 310.320,203.183 309.000 C 199.664 287.285,197.859 260.420,197.823 229.200 L 197.800 209.800 218.800 209.908 C 244.822 210.041,272.103 210.655,285.800 211.417 C 291.520 211.735,296.541 211.996,296.959 211.998 C 297.793 212.000,297.753 215.505,296.804 225.800 C 296.581 228.220,296.222 232.360,296.008 235.000 C 295.793 237.640,295.432 241.690,295.205 244.000 C 292.862 267.882,291.358 290.769,291.735 296.800 C 293.141 319.297,315.215 329.743,342.800 320.966 C 345.793 320.013,345.685 320.338,344.796 314.985 C 341.847 297.237,339.878 273.214,338.812 242.000 C 338.287 226.628,338.279 204.239,338.796 195.611 C 339.810 178.668,340.069 174.714,340.426 170.800 C 340.637 168.490,340.988 164.620,341.207 162.200 C 341.426 159.780,341.963 153.930,342.399 149.200 C 345.271 118.113,345.812 102.772,344.241 97.000 C 341.428 86.664,332.143 78.554,320.872 76.589 C 316.802 75.879,312.172 75.896,306.000 76.642 M70.200 78.584 C 60.955 79.721,54.515 81.670,54.995 83.186 C 55.566 84.983,57.466 97.109,58.382 104.800 C 60.909 126.013,61.733 142.541,61.755 172.400 C 61.776 199.752,61.563 204.263,58.566 240.000 C 56.876 260.164,56.789 261.252,56.399 267.000 C 54.943 288.465,54.947 296.351,56.417 301.597 C 60.442 315.962,77.261 324.864,94.280 321.636 C 95.336 321.436,97.550 321.041,99.200 320.759 C 100.850 320.476,103.097 319.920,104.194 319.523 C 105.291 319.125,106.466 318.800,106.805 318.800 C 108.345 318.800,109.136 317.693,108.767 316.053 C 108.278 313.877,106.575 303.310,106.034 299.101 C 104.508 287.216,104.120 282.863,102.729 262.000 C 102.046 251.770,102.031 204.074,102.707 195.000 C 102.985 191.260,103.397 185.590,103.622 182.400 C 104.345 172.141,104.937 164.863,105.999 153.200 C 106.209 150.890,106.575 146.300,106.811 143.000 C 107.048 139.700,107.407 135.110,107.608 132.800 C 108.484 122.771,108.953 106.865,108.478 103.296 C 106.124 85.616,91.225 75.997,70.200 78.584 " stroke="none" fill="#fbfbfb" fill-rule="evenodd"></path><path id="path1" d="M30.400 0.291 C 29.630 0.382,28.829 0.624,28.620 0.829 C 28.411 1.033,27.826 1.200,27.320 1.200 C 26.814 1.200,26.400 1.380,26.400 1.600 C 26.400 1.820,25.860 2.000,25.200 2.000 C 24.540 2.000,24.000 2.180,24.000 2.400 C 24.000 2.620,23.640 2.800,23.200 2.800 C 22.760 2.800,22.400 2.980,22.400 3.200 C 22.400 3.420,22.040 3.600,21.600 3.600 C 21.160 3.600,20.800 3.780,20.800 4.000 C 20.800 4.220,20.440 4.400,20.000 4.400 C 19.560 4.400,19.200 4.580,19.200 4.800 C 19.200 5.020,18.964 5.200,18.675 5.200 C 18.387 5.200,17.764 5.560,17.292 6.000 C 16.820 6.440,16.252 6.800,16.031 6.800 C 15.533 6.800,7.600 14.559,7.599 15.047 C 7.599 15.241,7.059 16.030,6.400 16.800 C 5.741 17.570,5.201 18.425,5.201 18.700 C 5.200 18.975,5.020 19.200,4.800 19.200 C 4.580 19.200,4.400 19.560,4.400 20.000 C 4.400 20.440,4.220 20.800,4.000 20.800 C 3.780 20.800,3.600 21.160,3.600 21.600 C 3.600 22.040,3.420 22.400,3.200 22.400 C 2.980 22.400,2.800 22.760,2.800 23.200 C 2.800 23.640,2.664 24.000,2.497 24.000 C 2.172 24.000,1.200 26.816,1.200 27.760 C 1.200 28.075,0.975 28.408,0.700 28.500 C -0.036 28.745,-0.036 371.255,0.700 371.500 C 0.975 371.592,1.200 372.091,1.200 372.610 C 1.200 373.128,1.380 373.664,1.600 373.800 C 1.820 373.936,2.000 374.487,2.000 375.024 C 2.000 375.561,2.180 376.000,2.400 376.000 C 2.620 376.000,2.800 376.360,2.800 376.800 C 2.800 377.240,2.980 377.600,3.200 377.600 C 3.420 377.600,3.600 377.960,3.600 378.400 C 3.600 378.840,3.780 379.200,4.000 379.200 C 4.220 379.200,4.400 379.560,4.400 380.000 C 4.400 380.440,4.580 380.800,4.800 380.800 C 5.020 380.800,5.200 381.025,5.201 381.300 C 5.201 381.575,5.741 382.430,6.400 383.200 C 7.059 383.970,7.599 384.741,7.599 384.913 C 7.600 385.086,8.185 385.848,8.900 386.606 C 9.615 387.365,10.577 388.394,11.037 388.893 C 12.375 390.343,14.751 392.400,15.089 392.401 C 15.260 392.401,16.030 392.941,16.800 393.600 C 17.570 394.259,18.425 394.799,18.700 394.799 C 18.975 394.800,19.200 394.980,19.200 395.200 C 19.200 395.420,19.560 395.600,20.000 395.600 C 20.440 395.600,20.800 395.780,20.800 396.000 C 20.800 396.220,21.160 396.400,21.600 396.400 C 22.040 396.400,22.400 396.580,22.400 396.800 C 22.400 397.020,22.760 397.200,23.200 397.200 C 23.640 397.200,24.000 397.380,24.000 397.600 C 24.000 397.820,24.540 398.000,25.200 398.000 C 25.860 398.000,26.400 398.180,26.400 398.400 C 26.400 398.620,26.814 398.800,27.320 398.800 C 27.826 398.800,28.465 399.025,28.740 399.300 C 29.476 400.036,370.524 400.036,371.260 399.300 C 371.535 399.025,372.163 398.800,372.656 398.800 C 373.149 398.800,373.664 398.620,373.800 398.400 C 373.936 398.180,374.487 398.000,375.024 398.000 C 375.561 398.000,376.000 397.820,376.000 397.600 C 376.000 397.380,376.360 397.200,376.800 397.200 C 377.240 397.200,377.600 397.020,377.600 396.800 C 377.600 396.580,377.960 396.400,378.400 396.400 C 378.840 396.400,379.200 396.220,379.200 396.000 C 379.200 395.780,379.520 395.600,379.912 395.600 C 380.303 395.600,380.883 395.240,381.200 394.800 C 381.517 394.360,382.057 394.000,382.400 394.000 C 382.743 394.000,383.283 393.640,383.600 393.200 C 383.917 392.760,384.412 392.400,384.699 392.400 C 385.793 392.400,392.400 385.793,392.400 384.699 C 392.400 384.412,392.760 383.917,393.200 383.600 C 393.640 383.283,394.000 382.743,394.000 382.400 C 394.000 382.057,394.360 381.517,394.800 381.200 C 395.240 380.883,395.600 380.303,395.600 379.912 C 395.600 379.520,395.780 379.200,396.000 379.200 C 396.220 379.200,396.400 378.840,396.400 378.400 C 396.400 377.960,396.580 377.600,396.800 377.600 C 397.020 377.600,397.200 377.240,397.200 376.800 C 397.200 376.360,397.380 376.000,397.600 376.000 C 397.820 376.000,398.000 375.561,398.000 375.024 C 398.000 374.487,398.180 373.936,398.400 373.800 C 398.620 373.664,398.800 373.149,398.800 372.656 C 398.800 372.163,399.025 371.535,399.300 371.260 C 400.036 370.524,400.036 29.145,399.300 28.900 C 399.025 28.808,398.800 28.208,398.800 27.567 C 398.800 26.925,398.620 26.400,398.400 26.400 C 398.180 26.400,398.000 25.961,398.000 25.424 C 398.000 24.887,397.820 24.336,397.600 24.200 C 397.380 24.064,397.200 23.603,397.200 23.176 C 397.200 22.749,397.020 22.400,396.800 22.400 C 396.580 22.400,396.400 22.040,396.400 21.600 C 396.400 21.160,396.220 20.800,396.000 20.800 C 395.780 20.800,395.600 20.480,395.600 20.088 C 395.600 19.697,395.240 19.117,394.800 18.800 C 394.360 18.483,394.000 17.969,394.000 17.659 C 394.000 17.348,393.684 16.803,393.297 16.447 C 392.911 16.091,392.342 15.309,392.034 14.708 C 391.467 13.603,385.439 7.601,384.895 7.599 C 384.733 7.599,383.970 7.059,383.200 6.400 C 382.430 5.741,381.575 5.201,381.300 5.201 C 381.025 5.200,380.800 5.020,380.800 4.800 C 380.800 4.580,380.440 4.400,380.000 4.400 C 379.560 4.400,379.200 4.220,379.200 4.000 C 379.200 3.780,378.840 3.600,378.400 3.600 C 377.960 3.600,377.600 3.420,377.600 3.200 C 377.600 2.980,377.240 2.800,376.800 2.800 C 376.360 2.800,376.000 2.620,376.000 2.400 C 376.000 2.180,375.561 2.000,375.024 2.000 C 374.487 2.000,373.936 1.820,373.800 1.600 C 373.664 1.380,373.128 1.200,372.610 1.200 C 372.091 1.200,371.592 0.975,371.500 0.700 C 371.341 0.222,34.382 -0.183,30.400 0.291 M320.872 76.589 C 332.143 78.554,341.428 86.664,344.241 97.000 C 345.812 102.772,345.271 118.113,342.399 149.200 C 341.963 153.930,341.426 159.780,341.207 162.200 C 340.988 164.620,340.637 168.490,340.426 170.800 C 340.069 174.714,339.810 178.668,338.796 195.611 C 337.025 225.207,340.123 286.856,344.796 314.985 C 345.685 320.338,345.793 320.013,342.800 320.966 C 315.215 329.743,293.141 319.297,291.735 296.800 C 291.358 290.769,292.862 267.882,295.205 244.000 C 295.432 241.690,295.793 237.640,296.008 235.000 C 296.222 232.360,296.581 228.220,296.804 225.800 C 297.753 215.505,297.793 212.000,296.959 211.998 C 296.541 211.996,291.520 211.735,285.800 211.417 C 272.103 210.655,244.822 210.041,218.800 209.908 L 197.800 209.800 197.823 229.200 C 197.859 260.420,199.664 287.285,203.183 309.000 C 203.396 310.320,203.757 312.611,203.983 314.092 C 204.209 315.572,204.441 316.995,204.497 317.255 C 204.905 319.126,191.373 322.000,182.155 322.000 C 167.017 322.000,155.244 313.865,151.758 300.997 C 150.301 295.619,150.770 279.442,153.208 251.000 C 153.434 248.360,153.791 244.130,154.000 241.600 C 154.209 239.070,154.568 234.750,154.799 232.000 C 157.091 204.707,157.771 187.420,157.443 164.800 C 156.942 130.248,154.830 104.666,150.806 84.400 C 150.314 81.922,151.105 81.444,158.400 79.807 C 175.681 75.931,187.954 78.501,197.108 87.914 C 199.374 90.244,202.400 94.654,202.400 95.627 C 202.400 95.838,202.558 96.323,202.751 96.705 C 204.032 99.241,204.176 100.748,204.098 110.800 C 204.055 116.410,203.831 123.340,203.602 126.200 C 202.999 133.708,201.831 146.530,201.197 152.600 C 200.990 154.580,200.640 158.270,200.418 160.800 C 200.197 163.330,199.812 167.620,199.562 170.334 C 199.272 173.476,199.246 175.406,199.490 175.650 C 200.513 176.673,210.596 176.985,242.600 176.983 C 276.208 176.981,281.737 176.785,294.700 175.133 L 298.400 174.662 298.393 164.831 C 298.376 142.163,296.224 112.032,293.192 92.000 C 292.742 89.030,292.163 85.206,291.906 83.501 C 291.337 79.741,291.069 80.018,296.800 78.454 C 304.922 76.237,314.569 75.490,320.872 76.589 M86.200 78.974 C 98.934 82.380,106.842 91.013,108.478 103.296 C 108.953 106.865,108.484 122.771,107.608 132.800 C 107.407 135.110,107.048 139.700,106.811 143.000 C 106.575 146.300,106.209 150.890,105.999 153.200 C 104.937 164.863,104.345 172.141,103.622 182.400 C 103.397 185.590,102.985 191.260,102.707 195.000 C 102.031 204.074,102.046 251.770,102.729 262.000 C 104.120 282.863,104.508 287.216,106.034 299.101 C 106.575 303.310,108.278 313.877,108.767 316.053 C 109.136 317.693,108.345 318.800,106.805 318.800 C 106.466 318.800,105.291 319.125,104.194 319.523 C 103.097 319.920,100.850 320.476,99.200 320.759 C 97.550 321.041,95.336 321.436,94.280 321.636 C 77.261 324.864,60.442 315.962,56.417 301.597 C 54.947 296.351,54.943 288.465,56.399 267.000 C 56.789 261.252,56.876 260.164,58.566 240.000 C 61.563 204.263,61.776 199.752,61.755 172.400 C 61.733 142.541,60.909 126.013,58.382 104.800 C 57.466 97.109,55.566 84.983,54.995 83.186 C 53.971 79.958,77.835 76.738,86.200 78.974 " stroke="none" fill="#448bbc" fill-rule="evenodd"></path></g></svg>